<svg width="1916" height="628" viewBox="0 0 1916 628" fill="none" xmlns="http://www.w3.org/2000/svg">
<mask id="path-1-outside-1_6_509" maskUnits="userSpaceOnUse" x="-0.272461" y="0" width="1917" height="628" fill="black">
<rect fill="white" x="-0.272461" width="1917" height="628"/>
<path d="M268.228 398.5H123.728L110.728 461C108.728 467.5 106.728 472 104.728 474C102.228 475.5 97.2275 476.5 90.2275 476.5H30.7275C23.7275 476.5 19.2275 475 17.2275 473C14.7275 470 14.2275 465.5 16.2275 458.5L104.728 52C105.228 49 106.228 46 107.228 43C108.228 40.5 109.728 38 111.728 35.5C113.728 33.5 116.728 31.5 120.728 30C124.228 29 129.228 28 135.228 28H256.728C262.728 28 267.728 29 271.728 30C275.228 31.5 278.228 33.5 280.228 35.5C282.228 38 283.728 40.5 284.728 43C285.728 46 286.228 49 287.228 52L375.728 458.5C377.228 465.5 377.228 470 375.228 473C372.728 475 368.228 476.5 361.228 476.5H301.728C294.228 476.5 289.228 475.5 287.228 474C284.728 472 282.728 467.5 281.228 461L268.228 398.5ZM141.228 315H250.728L208.228 110.5H183.728L141.228 315ZM449.294 477C444.294 477 441.294 476 439.294 474.5C437.294 472.5 436.294 469.5 436.294 464.5V171.5C436.294 166.5 437.294 163.5 439.294 161.5C441.294 160 444.294 159 449.294 159H512.794C517.294 159 520.794 160 522.794 161.5C524.794 163.5 525.794 166.5 525.794 171.5V464.5C525.794 469.5 524.794 472.5 522.794 474.5C520.794 476 517.294 477 512.794 477H449.294ZM449.294 117C444.294 117 441.294 116.5 439.294 114.5C437.294 113 436.294 109.5 436.294 104.5V40.5C436.294 35.5 437.294 32.5 439.294 30.5C441.294 29 444.294 28 449.294 28H512.794C517.294 28 520.794 29 522.794 30.5C524.794 32.5 525.794 35.5 525.794 40.5V104.5C525.794 109.5 524.794 113 522.794 114.5C520.794 116.5 517.294 117 512.794 117H449.294ZM755.622 398.5C764.122 398.5 772.122 397 779.122 394C786.122 391 792.122 386.5 797.122 379.5C801.622 373 805.122 364 808.122 352.5C810.622 341.5 812.122 328 812.122 311.5C812.122 294.5 811.122 279.5 809.122 267.5C807.122 256 803.622 246.5 799.122 238.5C794.122 231.5 787.122 226 779.122 222.5C770.122 219.5 759.622 217.5 746.622 217.5C736.622 217.5 727.122 219 719.122 221C710.622 223.5 704.122 226.5 699.122 230.5V391.5C708.622 394.5 718.122 396 727.622 397C736.622 398 745.622 398.5 755.622 398.5ZM699.122 463.5C699.122 468.5 698.122 471.5 696.122 473.5C694.122 475 690.622 476 686.122 476H625.122C620.122 476 617.122 475 615.122 473.5C613.122 471.5 612.122 468.5 612.122 463.5V27.5C612.122 22.5 613.122 19.5 615.122 17.5C617.122 16 620.122 15 625.122 15H686.122C690.622 15 694.122 16 696.122 17.5C698.122 19.5 699.122 22.5 699.122 27.5V154C707.122 150 716.622 146.5 726.622 143C736.122 140 749.122 138.5 765.122 138.5C786.122 138.5 805.622 141 822.622 146C839.122 151 853.122 160 865.122 173C876.122 186 885.122 204 891.622 226C897.622 248.5 900.622 277 900.622 311.5C900.622 343 897.622 369.5 892.622 390.5C887.122 411.5 879.122 429 869.122 442C858.122 455 845.122 464 829.122 470C812.622 475.5 793.622 478.5 772.622 478.5C759.622 478.5 746.622 477 733.622 474.5C720.122 471.5 708.622 467 699.122 461V463.5ZM1222.99 377C1222.99 387 1223.49 394 1224.99 398.5C1225.99 402.5 1228.99 406 1233.99 408C1234.99 408.5 1236.99 409.5 1239.99 411.5C1241.99 412.5 1243.49 416 1243.49 422V467.5C1243.49 471 1242.49 474 1241.49 476.5C1239.99 478.5 1238.49 480 1236.49 481.5C1234.49 482.5 1232.49 483.5 1230.49 484C1227.99 484 1225.99 484.5 1224.99 484.5C1213.99 484 1204.99 483.5 1197.99 482.5C1189.99 481 1183.49 479.5 1177.99 478C1171.99 476 1166.99 473.5 1162.49 471C1157.49 468 1152.99 465.5 1148.99 462.5C1137.99 466.5 1126.99 470.5 1115.99 474C1105.99 476.5 1095.49 479 1083.99 481.5C1071.99 483.5 1060.49 485 1049.49 485C1016.99 485 992.985 475 976.985 456C960.485 436.5 952.485 410.5 952.485 378C952.485 360 954.985 344.5 959.985 332C964.985 320 971.985 310.5 981.985 302.5C991.485 295.5 1003.49 289.5 1017.49 285.5C1031.49 282 1047.49 279.5 1065.49 278L1135.99 273.5V257.5C1135.99 249 1132.99 242 1126.99 236C1120.49 231 1112.49 228 1103.49 228C1094.99 228 1085.99 228.5 1076.49 228.5C1066.49 229 1056.49 229.5 1046.99 229.5C1036.99 230.5 1027.99 231 1018.99 231C1009.99 232 1001.99 232.5 995.985 232.5H987.985C985.485 232.5 983.485 232 981.985 230.5C979.985 229.5 978.485 227 977.485 224C976.485 221.5 975.985 217.5 975.985 211.5L974.985 179.5C974.485 171 975.985 165 979.485 162C982.485 159 986.485 157.5 991.985 156.5C998.985 155.5 1006.99 154.5 1016.99 153C1026.49 152 1036.49 150.5 1047.49 149L1079.49 146C1089.99 145.5 1099.49 145 1108.49 145C1126.49 145 1142.99 147 1157.49 150.5C1171.49 154.5 1182.99 161 1192.99 169.5C1202.49 178.5 1209.99 190 1215.49 204C1220.49 218.5 1222.99 236 1222.99 256.5V377ZM1076.49 342.5C1064.99 343.5 1055.99 346 1049.99 350.5C1042.99 355.5 1039.99 364 1039.99 375.5C1039.99 398.5 1048.99 410 1066.99 410C1073.49 410 1080.99 409.5 1088.99 409C1096.99 408 1104.49 406.5 1111.49 405.5C1119.49 404 1127.99 402.5 1135.99 400.5V340L1076.49 342.5ZM1343.26 152.5C1349.76 152.5 1354.76 154 1357.76 156.5C1360.76 159.5 1362.76 163.5 1364.26 169L1419.26 392H1434.26L1488.76 170C1491.76 158.5 1499.76 152.5 1513.76 152.5H1561.26C1568.26 152.5 1572.76 154 1574.76 156.5C1576.26 159.5 1576.26 164 1574.76 170L1469.26 599C1467.76 604 1465.76 608 1463.26 610C1460.26 612 1456.26 613 1451.76 613H1399.26C1393.26 613 1388.76 612 1385.76 610C1382.26 607.5 1381.26 603.5 1383.26 597.5L1412.76 477H1373.26C1367.26 477 1362.26 476 1358.76 474C1354.76 471.5 1351.76 467 1350.26 460.5L1278.76 171.5C1276.76 165.5 1277.26 160.5 1279.26 157C1281.26 154 1285.76 152.5 1293.76 152.5H1343.26ZM1751.32 145C1779.32 145 1803.32 149.5 1822.82 157.5C1841.82 166 1856.82 177.5 1868.82 192C1879.82 207 1888.32 225 1893.32 245.5C1898.32 266.5 1900.82 289.5 1900.82 314.5C1900.82 339.5 1898.32 362.5 1893.32 383C1888.32 404 1879.82 422 1868.82 437.5C1856.82 452.5 1841.82 464 1822.82 472.5C1803.32 480.5 1779.32 485 1751.32 485C1722.82 485 1699.32 480.5 1680.32 472.5C1661.32 464 1645.82 452.5 1634.32 437.5C1622.32 422 1614.32 404 1609.32 383C1604.32 362.5 1601.82 339.5 1601.82 314.5C1601.82 289.5 1604.32 266.5 1609.32 245.5C1614.32 225 1622.32 207 1634.32 192C1645.82 177.5 1661.32 166 1680.32 157.5C1699.32 149.5 1722.82 145 1751.32 145ZM1751.32 406C1763.32 406 1773.32 404 1781.32 400.5C1789.32 396.5 1795.32 390.5 1800.32 382.5C1804.82 375 1808.32 365.5 1810.32 354C1811.82 343 1812.82 329.5 1812.82 314.5C1812.82 299.5 1811.82 286.5 1810.32 275C1808.32 264 1804.82 254.5 1800.32 246.5C1795.32 239 1789.32 233 1781.32 229C1773.32 225.5 1763.32 223.5 1751.32 223.5C1727.32 223.5 1710.82 231.5 1702.82 246.5C1694.32 262 1690.32 284.5 1690.32 314.5C1690.32 344.5 1694.32 367.5 1702.82 382.5C1710.82 398 1727.32 406 1751.32 406Z"/>
</mask>
<path d="M268.228 398.5H123.728L110.728 461C108.728 467.5 106.728 472 104.728 474C102.228 475.5 97.2275 476.5 90.2275 476.5H30.7275C23.7275 476.5 19.2275 475 17.2275 473C14.7275 470 14.2275 465.5 16.2275 458.5L104.728 52C105.228 49 106.228 46 107.228 43C108.228 40.5 109.728 38 111.728 35.5C113.728 33.5 116.728 31.5 120.728 30C124.228 29 129.228 28 135.228 28H256.728C262.728 28 267.728 29 271.728 30C275.228 31.5 278.228 33.5 280.228 35.5C282.228 38 283.728 40.5 284.728 43C285.728 46 286.228 49 287.228 52L375.728 458.5C377.228 465.5 377.228 470 375.228 473C372.728 475 368.228 476.5 361.228 476.5H301.728C294.228 476.5 289.228 475.5 287.228 474C284.728 472 282.728 467.5 281.228 461L268.228 398.5ZM141.228 315H250.728L208.228 110.5H183.728L141.228 315ZM449.294 477C444.294 477 441.294 476 439.294 474.5C437.294 472.5 436.294 469.5 436.294 464.5V171.5C436.294 166.5 437.294 163.5 439.294 161.5C441.294 160 444.294 159 449.294 159H512.794C517.294 159 520.794 160 522.794 161.5C524.794 163.5 525.794 166.5 525.794 171.5V464.5C525.794 469.5 524.794 472.5 522.794 474.5C520.794 476 517.294 477 512.794 477H449.294ZM449.294 117C444.294 117 441.294 116.5 439.294 114.5C437.294 113 436.294 109.5 436.294 104.5V40.5C436.294 35.5 437.294 32.5 439.294 30.5C441.294 29 444.294 28 449.294 28H512.794C517.294 28 520.794 29 522.794 30.5C524.794 32.5 525.794 35.5 525.794 40.5V104.5C525.794 109.5 524.794 113 522.794 114.5C520.794 116.5 517.294 117 512.794 117H449.294ZM755.622 398.5C764.122 398.5 772.122 397 779.122 394C786.122 391 792.122 386.5 797.122 379.5C801.622 373 805.122 364 808.122 352.5C810.622 341.5 812.122 328 812.122 311.5C812.122 294.5 811.122 279.5 809.122 267.5C807.122 256 803.622 246.5 799.122 238.5C794.122 231.5 787.122 226 779.122 222.5C770.122 219.5 759.622 217.5 746.622 217.5C736.622 217.5 727.122 219 719.122 221C710.622 223.5 704.122 226.5 699.122 230.5V391.5C708.622 394.5 718.122 396 727.622 397C736.622 398 745.622 398.5 755.622 398.5ZM699.122 463.5C699.122 468.5 698.122 471.5 696.122 473.5C694.122 475 690.622 476 686.122 476H625.122C620.122 476 617.122 475 615.122 473.5C613.122 471.5 612.122 468.5 612.122 463.5V27.5C612.122 22.5 613.122 19.5 615.122 17.5C617.122 16 620.122 15 625.122 15H686.122C690.622 15 694.122 16 696.122 17.5C698.122 19.5 699.122 22.5 699.122 27.5V154C707.122 150 716.622 146.5 726.622 143C736.122 140 749.122 138.5 765.122 138.5C786.122 138.5 805.622 141 822.622 146C839.122 151 853.122 160 865.122 173C876.122 186 885.122 204 891.622 226C897.622 248.5 900.622 277 900.622 311.5C900.622 343 897.622 369.5 892.622 390.5C887.122 411.5 879.122 429 869.122 442C858.122 455 845.122 464 829.122 470C812.622 475.5 793.622 478.5 772.622 478.5C759.622 478.5 746.622 477 733.622 474.5C720.122 471.5 708.622 467 699.122 461V463.5ZM1222.99 377C1222.99 387 1223.49 394 1224.99 398.5C1225.99 402.5 1228.99 406 1233.99 408C1234.99 408.5 1236.99 409.5 1239.99 411.5C1241.99 412.5 1243.49 416 1243.49 422V467.5C1243.49 471 1242.49 474 1241.49 476.5C1239.99 478.5 1238.49 480 1236.49 481.5C1234.49 482.5 1232.49 483.5 1230.49 484C1227.99 484 1225.99 484.5 1224.99 484.5C1213.99 484 1204.99 483.5 1197.99 482.5C1189.99 481 1183.49 479.5 1177.99 478C1171.99 476 1166.99 473.5 1162.49 471C1157.49 468 1152.99 465.5 1148.99 462.5C1137.99 466.5 1126.99 470.5 1115.99 474C1105.99 476.5 1095.49 479 1083.99 481.5C1071.99 483.5 1060.49 485 1049.49 485C1016.99 485 992.985 475 976.985 456C960.485 436.5 952.485 410.5 952.485 378C952.485 360 954.985 344.5 959.985 332C964.985 320 971.985 310.5 981.985 302.5C991.485 295.5 1003.49 289.5 1017.49 285.5C1031.49 282 1047.49 279.5 1065.49 278L1135.99 273.5V257.5C1135.99 249 1132.99 242 1126.99 236C1120.49 231 1112.49 228 1103.49 228C1094.99 228 1085.99 228.5 1076.49 228.5C1066.49 229 1056.49 229.5 1046.99 229.5C1036.99 230.5 1027.99 231 1018.99 231C1009.99 232 1001.99 232.5 995.985 232.5H987.985C985.485 232.5 983.485 232 981.985 230.5C979.985 229.5 978.485 227 977.485 224C976.485 221.5 975.985 217.5 975.985 211.5L974.985 179.5C974.485 171 975.985 165 979.485 162C982.485 159 986.485 157.5 991.985 156.5C998.985 155.5 1006.99 154.5 1016.99 153C1026.49 152 1036.49 150.5 1047.49 149L1079.49 146C1089.99 145.5 1099.49 145 1108.49 145C1126.49 145 1142.99 147 1157.49 150.5C1171.49 154.5 1182.99 161 1192.99 169.5C1202.49 178.5 1209.99 190 1215.49 204C1220.49 218.5 1222.99 236 1222.99 256.5V377ZM1076.49 342.5C1064.99 343.5 1055.99 346 1049.99 350.5C1042.99 355.5 1039.99 364 1039.99 375.5C1039.99 398.5 1048.99 410 1066.99 410C1073.49 410 1080.99 409.5 1088.99 409C1096.99 408 1104.49 406.5 1111.49 405.5C1119.49 404 1127.99 402.5 1135.99 400.5V340L1076.49 342.5ZM1343.26 152.5C1349.76 152.5 1354.76 154 1357.76 156.5C1360.76 159.5 1362.76 163.5 1364.26 169L1419.26 392H1434.26L1488.76 170C1491.76 158.5 1499.76 152.5 1513.76 152.5H1561.26C1568.26 152.5 1572.76 154 1574.76 156.5C1576.26 159.5 1576.26 164 1574.76 170L1469.26 599C1467.76 604 1465.76 608 1463.26 610C1460.26 612 1456.26 613 1451.76 613H1399.26C1393.26 613 1388.76 612 1385.76 610C1382.26 607.5 1381.26 603.5 1383.26 597.5L1412.76 477H1373.26C1367.26 477 1362.26 476 1358.76 474C1354.76 471.5 1351.76 467 1350.26 460.5L1278.76 171.5C1276.76 165.5 1277.26 160.5 1279.26 157C1281.26 154 1285.76 152.5 1293.76 152.5H1343.26ZM1751.32 145C1779.32 145 1803.32 149.5 1822.82 157.5C1841.82 166 1856.82 177.5 1868.82 192C1879.82 207 1888.32 225 1893.32 245.5C1898.32 266.5 1900.82 289.5 1900.82 314.5C1900.82 339.5 1898.32 362.5 1893.32 383C1888.32 404 1879.82 422 1868.82 437.5C1856.82 452.5 1841.82 464 1822.82 472.5C1803.32 480.5 1779.32 485 1751.32 485C1722.82 485 1699.32 480.5 1680.32 472.5C1661.32 464 1645.82 452.5 1634.32 437.5C1622.32 422 1614.32 404 1609.32 383C1604.32 362.5 1601.82 339.5 1601.82 314.5C1601.82 289.5 1604.32 266.5 1609.32 245.5C1614.32 225 1622.32 207 1634.32 192C1645.82 177.5 1661.32 166 1680.32 157.5C1699.32 149.5 1722.82 145 1751.32 145ZM1751.32 406C1763.32 406 1773.32 404 1781.32 400.5C1789.32 396.5 1795.32 390.5 1800.32 382.5C1804.82 375 1808.32 365.5 1810.32 354C1811.82 343 1812.82 329.5 1812.82 314.5C1812.82 299.5 1811.82 286.5 1810.32 275C1808.32 264 1804.82 254.5 1800.32 246.5C1795.32 239 1789.32 233 1781.32 229C1773.32 225.5 1763.32 223.5 1751.32 223.5C1727.32 223.5 1710.82 231.5 1702.82 246.5C1694.32 262 1690.32 284.5 1690.32 314.5C1690.32 344.5 1694.32 367.5 1702.82 382.5C1710.82 398 1727.32 406 1751.32 406Z" fill="#FFDD00"/>
<path d="M268.228 398.5L282.913 395.445C281.466 388.487 275.334 383.5 268.228 383.5V398.5ZM123.728 398.5V383.5C116.621 383.5 110.489 388.487 109.042 395.445L123.728 398.5ZM110.728 461L125.064 465.411C125.202 464.965 125.318 464.512 125.413 464.055L110.728 461ZM104.728 474L112.445 486.862C113.497 486.231 114.467 485.474 115.334 484.607L104.728 474ZM17.2275 473L5.70422 482.603C5.99447 482.951 6.30036 483.286 6.62095 483.607L17.2275 473ZM16.2275 458.5L30.6504 462.621C30.7382 462.313 30.8162 462.003 30.8842 461.691L16.2275 458.5ZM104.728 52L119.384 55.1909C119.437 54.9504 119.483 54.7087 119.523 54.466L104.728 52ZM107.228 43L93.3004 37.4292C93.1913 37.702 93.0902 37.9779 92.9973 38.2566L107.228 43ZM111.728 35.5L101.121 24.8934C100.73 25.2847 100.36 25.6974 100.015 26.1296L111.728 35.5ZM120.728 30L116.607 15.5771C116.22 15.6877 115.837 15.8138 115.461 15.9551L120.728 30ZM271.728 30L277.636 16.2128C276.901 15.8977 276.142 15.6419 275.366 15.4479L271.728 30ZM280.228 35.5L291.941 26.1296C291.595 25.6974 291.226 25.2847 290.834 24.8934L280.228 35.5ZM284.728 43L298.958 38.2566C298.865 37.9779 298.764 37.7019 298.655 37.4291L284.728 43ZM287.228 52L301.884 48.809C301.77 48.2843 301.628 47.766 301.458 47.2565L287.228 52ZM375.728 458.5L390.395 455.357C390.391 455.341 390.388 455.325 390.384 455.309L375.728 458.5ZM375.228 473L384.598 484.713C385.803 483.749 386.852 482.605 387.708 481.321L375.228 473ZM287.228 474L277.857 485.713C277.979 485.811 278.103 485.906 278.228 486L287.228 474ZM281.228 461L266.542 464.055C266.564 464.161 266.587 464.267 266.612 464.373L281.228 461ZM141.228 315L126.541 311.948C125.623 316.367 126.743 320.965 129.592 324.466C132.44 327.967 136.714 330 141.228 330V315ZM250.728 315V330C255.241 330 259.515 327.967 262.363 324.466C265.212 320.965 266.332 316.367 265.414 311.948L250.728 315ZM208.228 110.5L222.914 107.448C221.467 100.489 215.335 95.5 208.228 95.5V110.5ZM183.728 110.5V95.5C176.62 95.5 170.488 100.489 169.041 107.448L183.728 110.5ZM268.228 398.5V383.5H123.728V398.5V413.5H268.228V398.5ZM123.728 398.5L109.042 395.445L96.0419 457.945L110.728 461L125.413 464.055L138.413 401.555L123.728 398.5ZM110.728 461L96.3909 456.589C95.498 459.491 94.7168 461.57 94.0854 462.951C93.7753 463.63 93.5679 463.992 93.4868 464.122C93.3845 464.287 93.5706 463.944 94.1209 463.393L104.728 474L115.334 484.607C118.228 481.712 120.119 478.159 121.37 475.424C122.738 472.43 123.957 469.009 125.064 465.411L110.728 461ZM104.728 474L97.0101 461.138C97.5903 460.789 97.8967 460.712 97.7201 460.769C97.5761 460.817 97.1913 460.927 96.5151 461.048C95.1461 461.294 93.0606 461.5 90.2275 461.5V476.5V491.5C97.7058 491.5 106.243 490.583 112.445 486.862L104.728 474ZM90.2275 476.5V461.5H30.7275V476.5V491.5H90.2275V476.5ZM30.7275 476.5V461.5C28.2318 461.5 26.7589 461.225 26.1172 461.047C25.8108 460.962 25.8419 460.94 26.1085 461.078C26.3593 461.208 27.0331 461.592 27.8341 462.393L17.2275 473L6.62095 483.607C10.1025 487.088 14.4187 488.934 18.0879 489.953C21.9462 491.025 26.2233 491.5 30.7275 491.5V476.5ZM17.2275 473L28.7509 463.397C29.1751 463.906 29.5107 464.485 29.7326 465.061C29.9467 465.617 29.9875 465.994 29.9935 466.069C29.998 466.127 29.974 465.896 30.0548 465.295C30.1356 464.694 30.308 463.819 30.6504 462.621L16.2275 458.5L1.80468 454.379C-0.65831 463 -1.61381 473.821 5.70422 482.603L17.2275 473ZM16.2275 458.5L30.8842 461.691L119.384 55.1909L104.728 52L90.0709 48.809L1.57087 455.309L16.2275 458.5ZM104.728 52L119.523 54.466C119.796 52.8316 120.384 50.9652 121.458 47.7434L107.228 43L92.9973 38.2566C92.0712 41.0348 90.6592 45.1683 89.9316 49.534L104.728 52ZM107.228 43L121.155 48.5708C121.515 47.6691 122.193 46.4303 123.441 44.8704L111.728 35.5L100.015 26.1296C97.2624 29.5697 94.9397 33.3309 93.3004 37.4292L107.228 43ZM111.728 35.5L122.334 46.1066C122.631 45.8098 123.733 44.893 125.994 44.0449L120.728 30L115.461 15.9551C109.722 18.107 104.824 21.1902 101.121 24.8934L111.728 35.5ZM120.728 30L124.848 44.4228C127.283 43.7272 130.881 43 135.228 43V28V13C127.574 13 121.172 14.2727 116.607 15.5771L120.728 30ZM135.228 28V43H256.728V28V13H135.228V28ZM256.728 28V43C261.026 43 264.708 43.7067 268.089 44.5521L271.728 30L275.366 15.4479C270.747 14.2932 264.429 13 256.728 13V28ZM271.728 30L265.819 43.7871C266.791 44.2036 267.649 44.6722 268.346 45.1267C269.062 45.5936 269.471 45.9562 269.621 46.1066L280.228 35.5L290.834 24.8934C287.248 21.3067 282.553 18.32 277.636 16.2128L271.728 30ZM280.228 35.5L268.514 44.8703C269.762 46.4303 270.44 47.6691 270.8 48.5709L284.728 43L298.655 37.4291C297.015 33.3308 294.693 29.5697 291.941 26.1296L280.228 35.5ZM284.728 43L270.497 47.7434C270.786 48.6089 271.029 49.5539 271.425 51.138C271.779 52.5539 272.286 54.6089 272.997 56.7435L287.228 52L301.458 47.2565C301.169 46.391 300.926 45.446 300.53 43.862C300.176 42.4461 299.669 40.3911 298.958 38.2566L284.728 43ZM287.228 52L272.571 55.1909L361.071 461.691L375.728 458.5L390.384 455.309L301.884 48.809L287.228 52ZM375.728 458.5L361.061 461.643C361.37 463.088 361.565 464.233 361.677 465.138C361.79 466.049 361.802 466.592 361.795 466.855C361.782 467.365 361.719 466.221 362.747 464.679L375.228 473L387.708 481.321C393.525 472.596 391.867 462.23 390.395 455.357L375.728 458.5ZM375.228 473L365.857 461.287C366.571 460.716 366.815 460.8 366.001 461.02C365.217 461.232 363.695 461.5 361.228 461.5V476.5V491.5C369.916 491.5 378.352 489.71 384.598 484.713L375.228 473ZM361.228 476.5V461.5H301.728V476.5V491.5H361.228V476.5ZM301.728 476.5V461.5C298.573 461.5 296.38 461.285 295.065 461.048C294.413 460.931 294.178 460.845 294.255 460.872C294.303 460.889 294.503 460.961 294.81 461.114C295.109 461.263 295.616 461.541 296.228 462L287.228 474L278.228 486C282.111 488.912 286.718 490.03 289.765 490.577C293.325 491.215 297.382 491.5 301.728 491.5V476.5ZM287.228 474L296.598 462.287C297.332 462.874 297.68 463.358 297.74 463.445C297.807 463.54 297.706 463.414 297.495 462.951C297.053 461.984 296.455 460.278 295.843 457.627L281.228 461L266.612 464.373C267.5 468.222 268.653 472.016 270.21 475.424C271.69 478.66 274.027 482.649 277.857 485.713L287.228 474ZM281.228 461L295.913 457.945L282.913 395.445L268.228 398.5L253.542 401.555L266.542 464.055L281.228 461ZM141.228 315V330H250.728V315V300H141.228V315ZM250.728 315L265.414 311.948L222.914 107.448L208.228 110.5L193.541 113.552L236.041 318.052L250.728 315ZM208.228 110.5V95.5H183.728V110.5V125.5H208.228V110.5ZM183.728 110.5L169.041 107.448L126.541 311.948L141.228 315L155.914 318.052L198.414 113.552L183.728 110.5ZM439.294 474.5L428.687 485.107C429.189 485.608 429.726 486.074 430.294 486.5L439.294 474.5ZM439.294 161.5L430.294 149.5C429.726 149.926 429.189 150.392 428.687 150.893L439.294 161.5ZM522.794 161.5L533.401 150.893C532.899 150.392 532.362 149.926 531.794 149.5L522.794 161.5ZM522.794 474.5L531.794 486.5C532.362 486.074 532.899 485.608 533.401 485.107L522.794 474.5ZM439.294 114.5L449.9 103.893C449.399 103.391 448.862 102.926 448.294 102.5L439.294 114.5ZM439.294 30.5L430.294 18.5C429.726 18.9259 429.189 19.3915 428.687 19.8934L439.294 30.5ZM522.794 30.5L533.401 19.8934C532.899 19.3915 532.362 18.9259 531.794 18.5L522.794 30.5ZM522.794 114.5L513.794 102.5C513.226 102.926 512.689 103.391 512.187 103.893L522.794 114.5ZM449.294 477V462C447.754 462 447.119 461.842 447.069 461.828C447.059 461.826 447.198 461.863 447.44 461.977C447.687 462.095 447.983 462.267 448.294 462.5L439.294 474.5L430.294 486.5C435.793 490.625 442.395 492 449.294 492V477ZM439.294 474.5L449.901 463.893C450.303 464.296 450.653 464.751 450.927 465.219C451.194 465.677 451.326 466.037 451.381 466.214C451.431 466.378 451.405 466.352 451.369 466.058C451.333 465.763 451.294 465.262 451.294 464.5H436.294H421.294C421.294 471.21 422.598 479.018 428.687 485.107L439.294 474.5ZM436.294 464.5H451.294V171.5H436.294H421.294V464.5H436.294ZM436.294 171.5H451.294C451.294 170.738 451.333 170.237 451.369 169.942C451.405 169.648 451.431 169.622 451.381 169.786C451.326 169.963 451.194 170.323 450.927 170.781C450.653 171.249 450.303 171.704 449.901 172.107L439.294 161.5L428.687 150.893C422.598 156.982 421.294 164.79 421.294 171.5H436.294ZM439.294 161.5L448.294 173.5C447.983 173.733 447.687 173.905 447.44 174.023C447.198 174.137 447.059 174.174 447.069 174.172C447.119 174.158 447.754 174 449.294 174V159V144C442.396 144 435.793 145.375 430.294 149.5L439.294 161.5ZM449.294 159V174H512.794V159V144H449.294V159ZM512.794 159V174C513.968 174 514.683 174.134 514.967 174.207C515.1 174.242 515.061 174.243 514.885 174.164C514.716 174.089 514.318 173.893 513.794 173.5L522.794 161.5L531.794 149.5C526.167 145.28 518.959 144 512.794 144V159ZM522.794 161.5L512.187 172.107C511.785 171.704 511.435 171.249 511.161 170.781C510.893 170.323 510.762 169.963 510.707 169.786C510.657 169.622 510.683 169.648 510.719 169.942C510.755 170.237 510.794 170.738 510.794 171.5H525.794H540.794C540.794 164.79 539.49 156.982 533.401 150.893L522.794 161.5ZM525.794 171.5H510.794V464.5H525.794H540.794V171.5H525.794ZM525.794 464.5H510.794C510.794 465.262 510.755 465.763 510.719 466.058C510.683 466.352 510.657 466.378 510.707 466.214C510.762 466.037 510.893 465.677 511.161 465.219C511.435 464.751 511.785 464.296 512.187 463.893L522.794 474.5L533.401 485.107C539.49 479.018 540.794 471.21 540.794 464.5H525.794ZM522.794 474.5L513.794 462.5C514.318 462.107 514.716 461.911 514.885 461.836C515.061 461.757 515.1 461.758 514.967 461.793C514.683 461.866 513.968 462 512.794 462V477V492C518.959 492 526.167 490.72 531.794 486.5L522.794 474.5ZM512.794 477V462H449.294V477V492H512.794V477ZM449.294 117V102C448.269 102 447.556 101.973 447.054 101.935C446.548 101.896 446.422 101.857 446.542 101.884C446.681 101.916 447.169 102.043 447.835 102.384C448.538 102.744 449.258 103.25 449.9 103.893L439.294 114.5L428.687 125.107C435.521 131.94 444.608 132 449.294 132V117ZM439.294 114.5L448.294 102.5C449.572 103.458 450.357 104.489 450.801 105.219C451.233 105.93 451.392 106.436 451.426 106.551C451.472 106.707 451.294 106.131 451.294 104.5H436.294H421.294C421.294 107.869 421.616 111.543 422.662 115.074C423.674 118.491 425.773 123.109 430.294 126.5L439.294 114.5ZM436.294 104.5H451.294V40.5H436.294H421.294V104.5H436.294ZM436.294 40.5H451.294C451.294 39.738 451.333 39.2373 451.369 38.9417C451.405 38.6484 451.431 38.6224 451.381 38.7863C451.326 38.963 451.194 39.3233 450.927 39.7808C450.653 40.249 450.303 40.7038 449.901 41.1066L439.294 30.5L428.687 19.8934C422.598 25.9824 421.294 33.7896 421.294 40.5H436.294ZM439.294 30.5L448.294 42.5C447.983 42.7334 447.687 42.905 447.44 43.0225C447.198 43.1372 447.059 43.1743 447.069 43.1717C447.119 43.1583 447.754 43 449.294 43V28V13C442.396 13 435.793 14.3753 430.294 18.5L439.294 30.5ZM449.294 28V43H512.794V28V13H449.294V28ZM512.794 28V43C513.968 43 514.683 43.1339 514.967 43.2074C515.1 43.242 515.061 43.2433 514.885 43.1642C514.716 43.0886 514.318 42.8929 513.794 42.5L522.794 30.5L531.794 18.5C526.167 14.2801 518.959 13 512.794 13V28ZM522.794 30.5L512.187 41.1065C511.785 40.7037 511.435 40.2489 511.161 39.7808C510.893 39.3233 510.762 38.963 510.707 38.7863C510.657 38.6224 510.683 38.6484 510.719 38.9417C510.755 39.2373 510.794 39.738 510.794 40.5H525.794H540.794C540.794 33.7896 539.49 25.9824 533.401 19.8934L522.794 30.5ZM525.794 40.5H510.794V104.5H525.794H540.794V40.5H525.794ZM525.794 104.5H510.794C510.794 106.131 510.616 106.707 510.662 106.551C510.696 106.436 510.855 105.93 511.287 105.219C511.73 104.489 512.516 103.458 513.794 102.5L522.794 114.5L531.794 126.5C536.315 123.109 538.413 118.491 539.426 115.074C540.472 111.543 540.794 107.869 540.794 104.5H525.794ZM522.794 114.5L512.187 103.893C513.036 103.044 513.882 102.524 514.499 102.226C515.088 101.942 515.467 101.86 515.477 101.857C515.489 101.855 515.29 101.898 514.796 101.937C514.309 101.975 513.659 102 512.794 102V117V132C515.433 132 518.71 131.871 521.985 131.143C525.3 130.406 529.683 128.824 533.4 125.107L522.794 114.5ZM512.794 117V102H449.294V117V132H512.794V117ZM797.122 379.5L809.328 388.219C809.371 388.159 809.413 388.099 809.455 388.038L797.122 379.5ZM808.122 352.5L822.636 356.286C822.676 356.133 822.714 355.979 822.749 355.824L808.122 352.5ZM809.122 267.5L823.918 265.034C823.912 264.999 823.906 264.965 823.9 264.93L809.122 267.5ZM799.122 238.5L812.196 231.146C811.931 230.676 811.642 230.22 811.328 229.781L799.122 238.5ZM779.122 222.5L785.134 208.758C784.719 208.576 784.296 208.413 783.865 208.27L779.122 222.5ZM719.122 221L715.484 206.448C715.285 206.498 715.087 206.552 714.89 206.61L719.122 221ZM699.122 230.5L689.752 218.787C686.193 221.634 684.122 225.943 684.122 230.5H699.122ZM699.122 391.5H684.122C684.122 398.044 688.365 403.833 694.605 405.804L699.122 391.5ZM727.622 397L729.279 382.092C729.25 382.089 729.221 382.085 729.192 382.082L727.622 397ZM696.122 473.5L705.122 485.5C705.69 485.074 706.227 484.608 706.729 484.107L696.122 473.5ZM615.122 473.5L604.515 484.107C605.017 484.608 605.554 485.074 606.122 485.5L615.122 473.5ZM615.122 17.5L606.122 5.49991C605.554 5.9258 605.017 6.39146 604.515 6.89338L615.122 17.5ZM696.122 17.5L706.729 6.89337C706.227 6.39146 705.69 5.92581 705.122 5.49994L696.122 17.5ZM699.122 154H684.122C684.122 159.199 686.814 164.027 691.236 166.76C695.658 169.493 701.18 169.741 705.83 167.416L699.122 154ZM726.622 143L722.105 128.696C721.958 128.743 721.812 128.791 721.667 128.842L726.622 143ZM822.622 146L826.972 131.645C826.933 131.633 826.894 131.621 826.855 131.609L822.622 146ZM865.122 173L876.573 163.311C876.433 163.146 876.291 162.984 876.144 162.826L865.122 173ZM891.622 226L906.116 222.135C906.081 222.006 906.045 221.878 906.007 221.75L891.622 226ZM892.622 390.5L907.133 394.3C907.161 394.192 907.188 394.083 907.214 393.974L892.622 390.5ZM869.122 442L880.573 451.689C880.723 451.511 880.869 451.33 881.011 451.146L869.122 442ZM829.122 470L833.865 484.23C834.041 484.172 834.216 484.11 834.389 484.045L829.122 470ZM733.622 474.5L730.368 489.143C730.508 489.174 730.649 489.203 730.789 489.23L733.622 474.5ZM699.122 461L707.132 448.318C702.511 445.399 696.668 445.225 691.882 447.863C687.095 450.501 684.122 455.534 684.122 461H699.122ZM755.622 398.5V413.5C765.853 413.5 775.906 411.698 785.031 407.787L779.122 394L773.213 380.213C768.338 382.302 762.391 383.5 755.622 383.5V398.5ZM779.122 394L785.031 407.787C794.398 403.773 802.636 397.587 809.328 388.219L797.122 379.5L784.916 370.781C781.608 375.413 777.846 378.227 773.213 380.213L779.122 394ZM797.122 379.5L809.455 388.038C815.43 379.408 819.469 368.428 822.636 356.286L808.122 352.5L793.608 348.714C790.775 359.572 787.815 366.592 784.789 370.962L797.122 379.5ZM808.122 352.5L822.749 355.824C825.544 343.525 827.122 328.883 827.122 311.5H812.122H797.122C797.122 327.117 795.7 339.475 793.495 349.176L808.122 352.5ZM812.122 311.5H827.122C827.122 293.999 826.098 278.117 823.918 265.034L809.122 267.5L794.326 269.966C796.146 280.883 797.122 295.001 797.122 311.5H812.122ZM809.122 267.5L823.9 264.93C821.626 251.852 817.581 240.72 812.196 231.146L799.122 238.5L786.048 245.854C789.663 252.28 792.618 260.148 794.344 270.07L809.122 267.5ZM799.122 238.5L811.328 229.781C804.648 220.429 795.441 213.267 785.134 208.758L779.122 222.5L773.11 236.242C778.804 238.733 783.596 242.571 786.916 247.219L799.122 238.5ZM779.122 222.5L783.865 208.27C773.346 204.763 761.244 202.5 746.622 202.5V217.5V232.5C758 232.5 766.899 234.237 774.379 236.73L779.122 222.5ZM746.622 217.5V202.5C735.169 202.5 724.431 204.211 715.484 206.448L719.122 221L722.76 235.552C729.813 233.789 738.075 232.5 746.622 232.5V217.5ZM719.122 221L714.89 206.61C705.372 209.409 696.841 213.115 689.752 218.787L699.122 230.5L708.493 242.213C711.403 239.885 715.872 237.591 723.355 235.39L719.122 221ZM699.122 230.5H684.122V391.5H699.122H714.122V230.5H699.122ZM699.122 391.5L694.605 405.804C705.458 409.231 716.069 410.867 726.052 411.918L727.622 397L729.192 382.082C720.175 381.133 711.786 379.769 703.639 377.196L699.122 391.5ZM727.622 397L725.966 411.908C735.542 412.972 745.096 413.5 755.622 413.5V398.5V383.5C746.149 383.5 737.702 383.028 729.279 382.092L727.622 397ZM699.122 463.5H684.122C684.122 464.262 684.083 464.763 684.047 465.058C684.011 465.352 683.985 465.378 684.035 465.214C684.09 465.037 684.222 464.677 684.489 464.219C684.763 463.751 685.113 463.296 685.515 462.893L696.122 473.5L706.729 484.107C712.818 478.018 714.122 470.21 714.122 463.5H699.122ZM696.122 473.5L687.122 461.5C687.646 461.107 688.044 460.911 688.213 460.836C688.389 460.757 688.428 460.758 688.295 460.793C688.011 460.866 687.296 461 686.122 461V476V491C692.287 491 699.496 489.72 705.122 485.5L696.122 473.5ZM686.122 476V461H625.122V476V491H686.122V476ZM625.122 476V461C623.583 461 622.947 460.842 622.897 460.828C622.887 460.826 623.027 460.863 623.268 460.977C623.515 461.095 623.811 461.267 624.122 461.5L615.122 473.5L606.122 485.5C611.622 489.625 618.224 491 625.122 491V476ZM615.122 473.5L625.729 462.893C626.132 463.296 626.481 463.751 626.755 464.219C627.023 464.677 627.154 465.037 627.209 465.214C627.259 465.378 627.233 465.352 627.197 465.058C627.161 464.763 627.122 464.262 627.122 463.5H612.122H597.122C597.122 470.21 598.426 478.018 604.515 484.107L615.122 473.5ZM612.122 463.5H627.122V27.5H612.122H597.122V463.5H612.122ZM612.122 27.5H627.122C627.122 26.7381 627.161 26.2373 627.197 25.9417C627.233 25.6484 627.259 25.6224 627.209 25.7863C627.154 25.963 627.023 26.3233 626.755 26.7808C626.481 27.2489 626.132 27.7037 625.729 28.1066L615.122 17.5L604.515 6.89338C598.426 12.9824 597.122 20.7897 597.122 27.5H612.122ZM615.122 17.5L624.122 29.5C623.811 29.7334 623.515 29.905 623.268 30.0225C623.027 30.1372 622.887 30.1743 622.897 30.1717C622.947 30.1582 623.583 30 625.122 30V15V-2.90871e-05C618.224 -2.90871e-05 611.622 1.37539 606.122 5.49991L615.122 17.5ZM625.122 15V30H686.122V15V-2.90871e-05H625.122V15ZM686.122 15V30C687.296 30 688.011 30.1339 688.295 30.2074C688.428 30.242 688.389 30.2433 688.213 30.1642C688.044 30.0887 687.646 29.8929 687.122 29.5L696.122 17.5L705.122 5.49994C699.496 1.28013 692.287 -2.90871e-05 686.122 -2.90871e-05V15ZM696.122 17.5L685.515 28.1066C685.113 27.7037 684.763 27.2489 684.489 26.7808C684.222 26.3233 684.09 25.963 684.035 25.7863C683.985 25.6224 684.011 25.6484 684.047 25.9417C684.083 26.2373 684.122 26.7381 684.122 27.5H699.122H714.122C714.122 20.7897 712.818 12.9824 706.729 6.89337L696.122 17.5ZM699.122 27.5H684.122V154H699.122H714.122V27.5H699.122ZM699.122 154L705.83 167.416C712.885 163.889 721.567 160.662 731.577 157.158L726.622 143L721.667 128.842C711.677 132.338 701.36 136.111 692.414 140.584L699.122 154ZM726.622 143L731.139 157.304C738.55 154.963 749.817 153.5 765.122 153.5V138.5V123.5C748.427 123.5 733.694 125.037 722.105 128.696L726.622 143ZM765.122 138.5V153.5C784.983 153.5 803.02 155.87 818.39 160.39L822.622 146L826.855 131.609C808.224 126.13 787.261 123.5 765.122 123.5V138.5ZM822.622 146L818.272 160.355C832.069 164.536 843.805 172.021 854.1 183.174L865.122 173L876.144 162.826C862.439 147.979 846.175 137.464 826.972 131.645L822.622 146ZM865.122 173L853.671 182.689C862.946 193.65 871.133 209.592 877.237 230.25L891.622 226L906.007 221.75C899.111 198.408 889.298 178.35 876.573 163.311L865.122 173ZM891.622 226L877.129 229.865C882.673 250.657 885.622 277.742 885.622 311.5H900.622H915.622C915.622 276.258 912.571 246.343 906.116 222.135L891.622 226ZM900.622 311.5H885.622C885.622 342.106 882.702 367.404 878.03 387.026L892.622 390.5L907.214 393.974C912.542 371.596 915.622 343.894 915.622 311.5H900.622ZM892.622 390.5L878.111 386.7C872.967 406.344 865.69 421.86 857.233 432.854L869.122 442L881.011 451.146C892.554 436.14 901.278 416.656 907.133 394.3L892.622 390.5ZM869.122 442L857.671 432.311C848.382 443.289 837.538 450.824 823.855 455.955L829.122 470L834.389 484.045C852.707 477.176 867.862 466.711 880.573 451.689L869.122 442ZM829.122 470L824.379 455.77C809.589 460.7 792.213 463.5 772.622 463.5V478.5V493.5C795.031 493.5 815.655 490.3 833.865 484.23L829.122 470ZM772.622 478.5V463.5C760.77 463.5 748.737 462.132 736.455 459.77L733.622 474.5L730.789 489.23C744.507 491.868 758.474 493.5 772.622 493.5V478.5ZM733.622 474.5L736.876 459.857C724.687 457.149 714.878 453.21 707.132 448.318L699.122 461L691.112 473.682C702.366 480.79 715.557 485.851 730.368 489.143L733.622 474.5ZM699.122 461H684.122V463.5H699.122H714.122V461H699.122ZM1224.99 398.5L1239.54 394.862C1239.44 394.49 1239.34 394.121 1239.22 393.757L1224.99 398.5ZM1233.99 408L1240.69 394.584C1240.32 394.398 1239.94 394.227 1239.56 394.073L1233.99 408ZM1239.99 411.5L1231.66 423.981C1232.18 424.326 1232.72 424.638 1233.28 424.916L1239.99 411.5ZM1241.49 476.5L1253.49 485.5C1254.28 484.447 1254.92 483.294 1255.41 482.071L1241.49 476.5ZM1236.49 481.5L1243.19 494.916C1244 494.514 1244.77 494.04 1245.49 493.5L1236.49 481.5ZM1230.49 484V499C1231.71 499 1232.93 498.85 1234.12 498.552L1230.49 484ZM1224.99 484.5L1224.3 499.485C1224.53 499.495 1224.76 499.5 1224.99 499.5V484.5ZM1197.99 482.5L1195.22 497.243C1195.43 497.283 1195.65 497.319 1195.86 497.349L1197.99 482.5ZM1177.99 478L1173.24 492.23C1173.51 492.318 1173.77 492.398 1174.04 492.471L1177.99 478ZM1162.49 471L1154.77 483.862C1154.91 483.948 1155.06 484.031 1155.2 484.112L1162.49 471ZM1148.99 462.5L1157.99 450.5C1153.93 447.461 1148.62 446.672 1143.86 448.403L1148.99 462.5ZM1115.99 474L1119.62 488.552C1119.93 488.476 1120.23 488.39 1120.53 488.294L1115.99 474ZM1083.99 481.5L1086.45 496.296C1086.69 496.256 1086.93 496.21 1087.17 496.158L1083.99 481.5ZM976.985 456L988.459 446.338C988.451 446.329 988.444 446.32 988.436 446.311L976.985 456ZM959.985 332L946.139 326.231C946.112 326.297 946.085 326.363 946.058 326.429L959.985 332ZM981.985 302.5L973.087 290.424C972.928 290.542 972.77 290.663 972.615 290.787L981.985 302.5ZM1017.49 285.5L1013.85 270.948C1013.69 270.988 1013.52 271.031 1013.36 271.077L1017.49 285.5ZM1065.49 278L1064.53 263.03C1064.43 263.037 1064.34 263.044 1064.24 263.052L1065.49 278ZM1135.99 273.5L1136.94 288.47C1144.84 287.965 1150.99 281.413 1150.99 273.5H1135.99ZM1126.99 236L1137.59 225.393C1137.13 224.935 1136.65 224.506 1136.13 224.111L1126.99 236ZM1076.49 228.5V213.5C1076.24 213.5 1075.99 213.506 1075.74 213.519L1076.49 228.5ZM1046.99 229.5V214.5C1046.49 214.5 1045.99 214.525 1045.49 214.574L1046.99 229.5ZM1018.99 231V216C1018.43 216 1017.88 216.031 1017.33 216.092L1018.99 231ZM981.985 230.5L992.592 219.893C991.452 218.753 990.136 217.805 988.694 217.084L981.985 230.5ZM977.485 224L991.716 219.257C991.623 218.978 991.522 218.702 991.412 218.429L977.485 224ZM975.985 211.5H990.985C990.985 211.344 990.983 211.188 990.978 211.031L975.985 211.5ZM974.985 179.5L989.978 179.031C989.974 178.894 989.968 178.756 989.959 178.619L974.985 179.5ZM979.485 162L989.247 173.389C989.539 173.139 989.82 172.878 990.092 172.607L979.485 162ZM991.985 156.5L989.864 141.651C989.676 141.678 989.489 141.708 989.302 141.742L991.985 156.5ZM1016.99 153L1015.42 138.082C1015.2 138.105 1014.98 138.133 1014.76 138.166L1016.99 153ZM1047.49 149L1046.09 134.065C1045.88 134.085 1045.67 134.109 1045.46 134.138L1047.49 149ZM1079.49 146L1078.77 131.017C1078.54 131.028 1078.31 131.044 1078.09 131.065L1079.49 146ZM1157.49 150.5L1161.61 136.077C1161.41 136.02 1161.21 135.967 1161 135.919L1157.49 150.5ZM1192.99 169.5L1203.3 158.611C1203.11 158.425 1202.91 158.245 1202.7 158.071L1192.99 169.5ZM1215.49 204L1229.67 199.11C1229.6 198.91 1229.52 198.712 1229.45 198.515L1215.49 204ZM1076.49 342.5L1075.86 327.513C1075.63 327.523 1075.41 327.537 1075.19 327.556L1076.49 342.5ZM1049.99 350.5L1058.7 362.706C1058.8 362.638 1058.89 362.57 1058.99 362.5L1049.99 350.5ZM1088.99 409L1089.92 423.971C1090.23 423.951 1090.54 423.923 1090.85 423.884L1088.99 409ZM1111.49 405.5L1113.61 420.349C1113.82 420.319 1114.04 420.283 1114.25 420.243L1111.49 405.5ZM1135.99 400.5L1139.62 415.052C1146.3 413.383 1150.99 407.383 1150.99 400.5H1135.99ZM1135.99 340H1150.99C1150.99 335.912 1149.32 332.002 1146.37 329.173C1143.42 326.344 1139.44 324.842 1135.36 325.013L1135.99 340ZM1222.99 377H1207.99C1207.99 386.791 1208.38 396.123 1210.76 403.243L1224.99 398.5L1239.22 393.757C1238.59 391.877 1237.99 387.209 1237.99 377H1222.99ZM1224.99 398.5L1210.43 402.138C1212.75 411.4 1219.54 418.376 1228.41 421.927L1233.99 408L1239.56 394.073C1238.91 393.814 1238.84 393.643 1239.01 393.826C1239.08 393.91 1239.19 394.047 1239.3 394.239C1239.4 394.431 1239.48 394.643 1239.54 394.862L1224.99 398.5ZM1233.99 408L1227.28 421.416C1227.99 421.772 1229.38 422.459 1231.66 423.981L1239.99 411.5L1248.31 399.019C1244.59 396.541 1241.98 395.228 1240.69 394.584L1233.99 408ZM1239.99 411.5L1233.28 424.916C1231.3 423.926 1230.06 422.627 1229.38 421.719C1228.7 420.822 1228.43 420.128 1228.36 419.92C1228.23 419.563 1228.49 420.11 1228.49 422H1243.49H1258.49C1258.49 417.89 1257.99 413.687 1256.61 409.83C1255.34 406.26 1252.56 401.019 1246.69 398.084L1239.99 411.5ZM1243.49 422H1228.49V467.5H1243.49H1258.49V422H1243.49ZM1243.49 467.5H1228.49C1228.49 468.136 1228.32 469.02 1227.56 470.929L1241.49 476.5L1255.41 482.071C1256.65 478.98 1258.49 473.864 1258.49 467.5H1243.49ZM1241.49 476.5L1229.49 467.5C1228.84 468.363 1228.35 468.853 1227.49 469.5L1236.49 481.5L1245.49 493.5C1248.62 491.147 1251.13 488.637 1253.49 485.5L1241.49 476.5ZM1236.49 481.5L1229.78 468.084C1228.71 468.615 1228.06 468.938 1227.47 469.195C1226.91 469.441 1226.75 469.473 1226.85 469.448L1230.49 484L1234.12 498.552C1238.02 497.578 1241.54 495.745 1243.19 494.916L1236.49 481.5ZM1230.49 484V469C1228.26 469 1226.38 469.223 1225.19 469.382C1224.9 469.42 1224.63 469.459 1224.43 469.486C1224.22 469.516 1224.1 469.532 1224.02 469.543C1223.7 469.583 1224.21 469.5 1224.99 469.5V484.5V499.5C1226.26 499.5 1227.39 499.355 1227.81 499.301C1228.1 499.265 1228.38 499.226 1228.58 499.198C1228.81 499.166 1228.98 499.142 1229.16 499.118C1229.84 499.027 1230.21 499 1230.49 499V484ZM1224.99 484.5L1225.67 469.515C1214.54 469.01 1206.27 468.531 1200.11 467.651L1197.99 482.5L1195.86 497.349C1203.7 498.469 1213.43 498.99 1224.3 499.485L1224.99 484.5ZM1197.99 482.5L1200.75 467.757C1193.08 466.319 1186.98 464.906 1181.93 463.529L1177.99 478L1174.04 492.471C1179.99 494.094 1186.89 495.681 1195.22 497.243L1197.99 482.5ZM1177.99 478L1182.73 463.77C1177.94 462.174 1173.84 460.148 1169.77 457.888L1162.49 471L1155.2 484.112C1160.13 486.852 1166.03 489.826 1173.24 492.23L1177.99 478ZM1162.49 471L1170.2 458.138C1164.59 454.768 1161.17 452.889 1157.99 450.5L1148.99 462.5L1139.99 474.5C1144.8 478.111 1150.38 481.232 1154.77 483.862L1162.49 471ZM1148.99 462.5L1143.86 448.403C1132.81 452.422 1122.1 456.314 1111.44 459.706L1115.99 474L1120.53 488.294C1131.87 484.686 1143.16 480.578 1154.11 476.597L1148.99 462.5ZM1115.99 474L1112.35 459.448C1102.47 461.918 1092.12 464.382 1080.8 466.842L1083.99 481.5L1087.17 496.158C1098.85 493.618 1109.51 491.082 1119.62 488.552L1115.99 474ZM1083.99 481.5L1081.52 466.704C1069.75 468.666 1059.22 470 1049.49 470V485V500C1061.75 500 1074.22 498.334 1086.45 496.296L1083.99 481.5ZM1049.49 485V470C1020.21 470 1000.92 461.135 988.459 446.338L976.985 456L965.512 465.662C985.051 488.865 1013.76 500 1049.49 500V485ZM976.985 456L988.436 446.311C974.848 430.252 967.485 408.047 967.485 378H952.485H937.485C937.485 412.953 946.123 442.748 965.535 465.689L976.985 456ZM952.485 378H967.485C967.485 361.272 969.824 347.791 973.913 337.571L959.985 332L946.058 326.429C940.146 341.209 937.485 358.728 937.485 378H952.485ZM959.985 332L973.832 337.769C977.911 327.979 983.419 320.562 991.356 314.213L981.985 302.5L972.615 290.787C960.551 300.438 952.06 312.021 946.139 326.231L959.985 332ZM981.985 302.5L990.883 314.576C998.851 308.705 1009.21 303.464 1021.61 299.923L1017.49 285.5L1013.36 271.077C997.759 275.536 984.119 282.295 973.087 290.424L981.985 302.5ZM1017.49 285.5L1021.12 300.052C1034.17 296.79 1049.35 294.397 1066.73 292.948L1065.49 278L1064.24 263.052C1045.62 264.603 1028.8 267.21 1013.85 270.948L1017.49 285.5ZM1065.49 278L1066.44 292.97L1136.94 288.47L1135.99 273.5L1135.03 258.53L1064.53 263.03L1065.49 278ZM1135.99 273.5H1150.99V257.5H1135.99H1120.99V273.5H1135.99ZM1135.99 257.5H1150.99C1150.99 244.897 1146.32 234.117 1137.59 225.393L1126.99 236L1116.38 246.607C1119.66 249.883 1120.99 253.103 1120.99 257.5H1135.99ZM1126.99 236L1136.13 224.111C1127.15 217.199 1115.96 213 1103.49 213V228V243C1109.01 243 1113.82 244.801 1117.84 247.889L1126.99 236ZM1103.49 228V213C1098.99 213 1094.39 213.132 1089.94 213.256C1085.43 213.381 1081 213.5 1076.49 213.5V228.5V243.5C1081.47 243.5 1086.29 243.369 1090.78 243.244C1095.33 243.118 1099.48 243 1103.49 243V228ZM1076.49 228.5L1075.74 213.519C1065.66 214.023 1056.04 214.5 1046.99 214.5V229.5V244.5C1056.93 244.5 1067.31 243.977 1077.23 243.481L1076.49 228.5ZM1046.99 229.5L1045.49 214.574C1035.9 215.533 1027.41 216 1018.99 216V231V246C1028.56 246 1038.07 245.467 1048.48 244.426L1046.99 229.5ZM1018.99 231L1017.33 216.092C1008.68 217.052 1001.26 217.5 995.985 217.5V232.5V247.5C1002.71 247.5 1011.29 246.948 1020.64 245.908L1018.99 231ZM995.985 232.5V217.5H987.985V232.5V247.5H995.985V232.5ZM987.985 232.5V217.5C987.656 217.5 988.16 217.456 989.084 217.745C990.164 218.083 991.462 218.764 992.592 219.893L981.985 230.5L971.379 241.107C976.916 246.644 983.659 247.5 987.985 247.5V232.5ZM981.985 230.5L988.694 217.084C990.775 218.124 991.69 219.453 991.841 219.679C992.033 219.968 991.928 219.893 991.716 219.257L977.485 224L963.255 228.743C964.518 232.532 967.65 240.103 975.277 243.916L981.985 230.5ZM977.485 224L991.412 218.429C991.57 218.824 991.414 218.597 991.251 217.258C991.097 215.987 990.985 214.129 990.985 211.5H975.985H960.985C960.985 217.735 961.418 224.221 963.558 229.571L977.485 224ZM975.985 211.5L990.978 211.031L989.978 179.031L974.985 179.5L959.993 179.969L960.993 211.969L975.985 211.5ZM974.985 179.5L989.959 178.619C989.766 175.333 990.023 173.362 990.269 172.398C990.512 171.447 990.519 172.299 989.247 173.389L979.485 162L969.723 150.611C960.495 158.521 959.464 171.086 960.011 180.381L974.985 179.5ZM979.485 162L990.092 172.607C990.094 172.605 990.102 172.595 990.148 172.564C990.202 172.529 990.352 172.438 990.656 172.309C991.322 172.026 992.515 171.65 994.669 171.258L991.985 156.5L989.302 141.742C982.695 142.943 975.084 145.188 968.879 151.393L979.485 162ZM991.985 156.5L994.107 171.349C1000.67 170.412 1009.26 169.327 1019.21 167.834L1016.99 153L1014.76 138.166C1004.71 139.673 997.3 140.588 989.864 141.651L991.985 156.5ZM1016.99 153L1018.56 167.918C1028.36 166.886 1038.79 165.324 1049.51 163.862L1047.49 149L1045.46 134.138C1034.18 135.676 1024.61 137.114 1015.42 138.082L1016.99 153ZM1047.49 149L1048.89 163.935L1080.89 160.934L1079.49 146L1078.09 131.065L1046.09 134.065L1047.49 149ZM1079.49 146L1080.2 160.983C1090.86 160.475 1099.93 160 1108.49 160V145V130C1099.04 130 1089.11 130.525 1078.77 131.017L1079.49 146ZM1108.49 145V160C1125.39 160 1140.7 161.88 1153.97 165.081L1157.49 150.5L1161 135.919C1145.27 132.12 1127.58 130 1108.49 130V145ZM1157.49 150.5L1153.36 164.923C1165.2 168.304 1174.81 173.738 1183.27 180.929L1192.99 169.5L1202.7 158.071C1191.16 148.262 1177.77 140.696 1161.61 136.077L1157.49 150.5ZM1192.99 169.5L1182.67 180.389C1190.35 187.666 1196.71 197.226 1201.52 209.485L1215.49 204L1229.45 198.515C1223.26 182.774 1214.62 169.334 1203.3 158.611L1192.99 169.5ZM1215.49 204L1201.3 208.89C1205.61 221.387 1207.99 237.14 1207.99 256.5H1222.99H1237.99C1237.99 234.86 1235.36 215.613 1229.67 199.11L1215.49 204ZM1222.99 256.5H1207.99V377H1222.99H1237.99V256.5H1222.99ZM1076.49 342.5L1075.19 327.556C1062.72 328.641 1050.34 331.483 1040.99 338.5L1049.99 350.5L1058.99 362.5C1061.63 360.517 1067.25 358.359 1077.78 357.444L1076.49 342.5ZM1049.99 350.5L1041.27 338.294C1028.6 347.341 1024.99 361.757 1024.99 375.5H1039.99H1054.99C1054.99 366.243 1057.37 363.659 1058.7 362.706L1049.99 350.5ZM1039.99 375.5H1024.99C1024.99 388.546 1027.47 401.094 1034.92 410.62C1042.92 420.844 1054.56 425 1066.99 425V410V395C1061.41 395 1059.55 393.406 1058.55 392.13C1057 390.156 1054.99 385.454 1054.99 375.5H1039.99ZM1066.99 410V425C1074.07 425 1082.12 424.458 1089.92 423.971L1088.99 409L1088.05 394.029C1079.85 394.542 1072.9 395 1066.99 395V410ZM1088.99 409L1090.85 423.884C1098.41 422.939 1108.31 421.106 1113.61 420.349L1111.49 405.5L1109.36 390.651C1100.66 391.894 1095.56 393.061 1087.12 394.116L1088.99 409ZM1111.49 405.5L1114.25 420.243C1121.99 418.791 1131.07 417.19 1139.62 415.052L1135.99 400.5L1132.35 385.948C1124.9 387.81 1116.98 389.209 1108.72 390.757L1111.49 405.5ZM1135.99 400.5H1150.99V340H1135.99H1120.99V400.5H1135.99ZM1135.99 340L1135.36 325.013L1075.86 327.513L1076.49 342.5L1077.12 357.487L1136.62 354.987L1135.99 340ZM1357.76 156.5L1368.37 145.893C1368.04 145.573 1367.71 145.267 1367.36 144.977L1357.76 156.5ZM1364.26 169L1378.82 165.408C1378.79 165.289 1378.76 165.171 1378.73 165.053L1364.26 169ZM1419.26 392L1404.7 395.592C1406.35 402.292 1412.36 407 1419.26 407V392ZM1434.26 392V407C1441.17 407 1447.18 402.284 1448.83 395.576L1434.26 392ZM1488.76 170L1474.24 166.214C1474.23 166.284 1474.21 166.354 1474.19 166.424L1488.76 170ZM1574.76 156.5L1588.18 149.792C1587.7 148.847 1587.13 147.955 1586.47 147.13L1574.76 156.5ZM1574.76 170L1560.21 166.362C1560.2 166.381 1560.2 166.399 1560.19 166.418L1574.76 170ZM1469.26 599L1483.63 603.31C1483.7 603.069 1483.76 602.826 1483.82 602.582L1469.26 599ZM1463.26 610L1471.58 622.481C1471.94 622.24 1472.29 621.984 1472.63 621.713L1463.26 610ZM1385.76 610L1377.04 622.206C1377.17 622.3 1377.3 622.391 1377.44 622.481L1385.76 610ZM1383.26 597.5L1397.49 602.243C1397.62 601.856 1397.73 601.464 1397.83 601.067L1383.26 597.5ZM1412.76 477L1427.33 480.567C1428.42 476.093 1427.4 471.364 1424.56 467.74C1421.72 464.116 1417.36 462 1412.76 462V477ZM1358.76 474L1350.81 486.72C1350.98 486.825 1351.15 486.926 1351.32 487.024L1358.76 474ZM1350.26 460.5L1364.87 457.127C1364.86 457.05 1364.84 456.974 1364.82 456.898L1350.26 460.5ZM1278.76 171.5L1293.32 167.898C1293.22 167.513 1293.11 167.132 1292.99 166.757L1278.76 171.5ZM1279.26 157L1266.78 148.68C1266.59 148.966 1266.41 149.259 1266.24 149.558L1279.26 157ZM1343.26 152.5V167.5C1345.39 167.5 1346.87 167.751 1347.75 167.999C1348.67 168.258 1348.63 168.422 1348.16 168.023L1357.76 156.5L1367.36 144.977C1360.6 139.343 1351.57 137.5 1343.26 137.5V152.5ZM1357.76 156.5L1347.15 167.107C1347.64 167.597 1348.68 168.87 1349.79 172.947L1364.26 169L1378.73 165.053C1376.84 158.13 1373.88 151.403 1368.37 145.893L1357.76 156.5ZM1364.26 169L1349.7 172.592L1404.7 395.592L1419.26 392L1433.82 388.408L1378.82 165.408L1364.26 169ZM1419.26 392V407H1434.26V392V377H1419.26V392ZM1434.26 392L1448.83 395.576L1503.33 173.576L1488.76 170L1474.19 166.424L1419.69 388.424L1434.26 392ZM1488.76 170L1503.27 173.786C1504.09 170.671 1505.16 169.633 1505.83 169.156C1506.67 168.56 1508.81 167.5 1513.76 167.5V152.5V137.5C1504.7 137.5 1495.85 139.44 1488.43 144.719C1480.85 150.117 1476.43 157.829 1474.24 166.214L1488.76 170ZM1513.76 152.5V167.5H1561.26V152.5V137.5H1513.76V152.5ZM1561.26 152.5V167.5C1562.48 167.5 1563.45 167.566 1564.18 167.658C1564.92 167.75 1565.34 167.858 1565.5 167.908C1565.67 167.96 1565.46 167.917 1565.02 167.65C1564.57 167.376 1563.81 166.826 1563.05 165.87L1574.76 156.5L1586.47 147.13C1582.97 142.748 1578.29 140.445 1574.27 139.217C1570.17 137.966 1565.72 137.5 1561.26 137.5V152.5ZM1574.76 156.5L1561.34 163.208C1560.76 162.039 1560.88 161.445 1560.88 162.125C1560.88 162.788 1560.76 164.142 1560.21 166.362L1574.76 170L1589.31 173.638C1591.03 166.756 1592.16 157.768 1588.18 149.792L1574.76 156.5ZM1574.76 170L1560.19 166.418L1454.69 595.418L1469.26 599L1483.82 602.582L1589.32 173.582L1574.76 170ZM1469.26 599L1454.89 594.69C1454.33 596.55 1453.8 597.815 1453.4 598.566C1453.21 598.925 1453.11 599.053 1453.13 599.019C1453.15 598.991 1453.39 598.688 1453.89 598.287L1463.26 610L1472.63 621.713C1478.92 616.68 1481.98 608.803 1483.63 603.31L1469.26 599ZM1463.26 610L1454.94 597.519C1455.03 597.455 1454.88 597.582 1454.32 597.726C1453.77 597.869 1452.92 598 1451.76 598V613V628C1458.3 628 1465.44 626.571 1471.58 622.481L1463.26 610ZM1451.76 613V598H1399.26V613V628H1451.76V613ZM1399.26 613V598C1397.04 598 1395.56 597.811 1394.64 597.607C1393.71 597.402 1393.68 597.25 1394.08 597.519L1385.76 610L1377.44 622.481C1384.05 626.887 1392.07 628 1399.26 628V613ZM1385.76 610L1394.48 597.794C1394.88 598.083 1395.48 598.61 1396.04 599.434C1396.6 600.275 1396.95 601.161 1397.12 601.95C1397.43 603.4 1396.98 603.757 1397.49 602.243L1383.26 597.5L1369.03 592.757C1367.53 597.243 1366.59 602.6 1367.77 608.175C1369.05 614.211 1372.5 618.964 1377.04 622.206L1385.76 610ZM1383.26 597.5L1397.83 601.067L1427.33 480.567L1412.76 477L1398.19 473.433L1368.69 593.933L1383.26 597.5ZM1412.76 477V462H1373.26V477V492H1412.76V477ZM1373.26 477V462C1368.56 462 1366.52 461.157 1366.2 460.976L1358.76 474L1351.32 487.024C1358 490.843 1365.96 492 1373.26 492V477ZM1358.76 474L1366.71 461.28C1366.96 461.437 1365.74 460.892 1364.87 457.127L1350.26 460.5L1335.64 463.873C1337.77 473.108 1342.56 481.563 1350.81 486.72L1358.76 474ZM1350.26 460.5L1364.82 456.898L1293.32 167.898L1278.76 171.5L1264.2 175.102L1335.7 464.102L1350.26 460.5ZM1278.76 171.5L1292.99 166.757C1291.99 163.767 1292.89 163.382 1292.28 164.442L1279.26 157L1266.24 149.558C1261.63 157.618 1261.53 167.233 1264.53 176.243L1278.76 171.5ZM1279.26 157L1291.74 165.32C1291.08 166.303 1290.32 166.999 1289.67 167.439C1289.07 167.851 1288.69 167.957 1288.78 167.929C1288.87 167.898 1289.29 167.78 1290.17 167.676C1291.03 167.574 1292.21 167.5 1293.76 167.5V152.5V137.5C1285.66 137.5 1273.48 138.63 1266.78 148.68L1279.26 157ZM1293.76 152.5V167.5H1343.26V152.5V137.5H1293.76V152.5ZM1822.82 157.5L1828.94 143.808C1828.8 143.744 1828.66 143.682 1828.51 143.622L1822.82 157.5ZM1868.82 192L1880.91 183.13C1880.74 182.893 1880.56 182.662 1880.37 182.436L1868.82 192ZM1893.32 245.5L1907.91 242.026C1907.9 241.999 1907.9 241.972 1907.89 241.946L1893.32 245.5ZM1893.32 383L1878.74 379.446C1878.74 379.472 1878.73 379.499 1878.73 379.526L1893.32 383ZM1868.82 437.5L1880.53 446.87C1880.71 446.646 1880.88 446.416 1881.05 446.181L1868.82 437.5ZM1822.82 472.5L1828.51 486.378C1828.66 486.318 1828.8 486.256 1828.94 486.192L1822.82 472.5ZM1680.32 472.5L1674.19 486.192C1674.29 486.237 1674.39 486.282 1674.5 486.325L1680.32 472.5ZM1634.32 437.5L1646.22 428.374C1646.21 428.355 1646.19 428.336 1646.18 428.317L1634.32 437.5ZM1609.32 383L1623.91 379.526C1623.9 379.499 1623.9 379.472 1623.89 379.446L1609.32 383ZM1609.32 245.5L1594.74 241.946C1594.74 241.972 1594.73 241.999 1594.73 242.026L1609.32 245.5ZM1634.32 192L1646.03 201.37C1646.04 201.354 1646.06 201.337 1646.07 201.321L1634.32 192ZM1680.32 157.5L1674.5 143.675C1674.39 143.718 1674.29 143.763 1674.19 143.808L1680.32 157.5ZM1781.32 400.5L1787.33 414.242C1787.56 414.14 1787.8 414.031 1788.03 413.916L1781.32 400.5ZM1800.32 382.5L1813.04 390.45C1813.09 390.373 1813.13 390.295 1813.18 390.217L1800.32 382.5ZM1810.32 354L1825.1 356.57C1825.13 356.39 1825.16 356.208 1825.18 356.027L1810.32 354ZM1810.32 275L1825.19 273.06C1825.16 272.811 1825.12 272.563 1825.08 272.317L1810.32 275ZM1800.32 246.5L1813.39 239.146C1813.21 238.817 1813.01 238.494 1812.8 238.179L1800.32 246.5ZM1781.32 229L1788.03 215.584C1787.8 215.469 1787.56 215.36 1787.33 215.258L1781.32 229ZM1702.82 246.5L1715.97 253.712C1716 253.661 1716.03 253.61 1716.05 253.559L1702.82 246.5ZM1702.82 382.5L1716.15 375.62C1716.06 375.447 1715.96 375.275 1715.87 375.105L1702.82 382.5ZM1751.32 145V160C1777.76 160 1799.76 164.255 1817.12 171.378L1822.82 157.5L1828.51 143.622C1806.87 134.745 1780.88 130 1751.32 130V145ZM1822.82 157.5L1816.69 171.192C1833.66 178.785 1846.78 188.9 1857.26 201.564L1868.82 192L1880.37 182.436C1866.85 166.1 1849.97 153.215 1828.94 143.808L1822.82 157.5ZM1868.82 192L1856.72 200.87C1866.51 214.22 1874.19 230.4 1878.74 249.054L1893.32 245.5L1907.89 241.946C1902.44 219.6 1893.12 199.78 1880.91 183.13L1868.82 192ZM1893.32 245.5L1878.73 248.974C1883.42 268.674 1885.82 290.491 1885.82 314.5H1900.82H1915.82C1915.82 288.509 1913.22 264.326 1907.91 242.026L1893.32 245.5ZM1900.82 314.5H1885.82C1885.82 338.529 1883.41 360.31 1878.74 379.446L1893.32 383L1907.89 386.554C1913.22 364.69 1915.82 340.471 1915.82 314.5H1900.82ZM1893.32 383L1878.73 379.526C1874.18 398.622 1866.49 414.859 1856.58 428.819L1868.82 437.5L1881.05 446.181C1893.14 429.141 1902.46 409.378 1907.91 386.474L1893.32 383ZM1868.82 437.5L1857.1 428.13C1846.69 441.153 1833.65 451.223 1816.69 458.808L1822.82 472.5L1828.94 486.192C1849.99 476.777 1866.95 463.847 1880.53 446.87L1868.82 437.5ZM1822.82 472.5L1817.12 458.622C1799.76 465.745 1777.76 470 1751.32 470V485V500C1780.88 500 1806.87 495.255 1828.51 486.378L1822.82 472.5ZM1751.32 485V470C1724.36 470 1702.92 465.74 1686.14 458.675L1680.32 472.5L1674.5 486.325C1695.72 495.26 1721.27 500 1751.32 500V485ZM1680.32 472.5L1686.44 458.808C1669.3 451.139 1655.95 441.061 1646.22 428.374L1634.32 437.5L1622.41 446.626C1635.69 463.939 1653.33 476.861 1674.19 486.192L1680.32 472.5ZM1634.32 437.5L1646.18 428.317C1635.71 414.8 1628.51 398.848 1623.91 379.526L1609.32 383L1594.73 386.474C1600.12 409.152 1608.92 429.2 1622.46 446.683L1634.32 437.5ZM1609.32 383L1623.89 379.446C1619.22 360.31 1616.82 338.529 1616.82 314.5H1601.82H1586.82C1586.82 340.471 1589.41 364.69 1594.74 386.554L1609.32 383ZM1601.82 314.5H1616.82C1616.82 290.491 1619.22 268.674 1623.91 248.974L1609.32 245.5L1594.73 242.026C1589.42 264.326 1586.82 288.509 1586.82 314.5H1601.82ZM1609.32 245.5L1623.89 249.054C1628.5 230.162 1635.69 214.292 1646.03 201.37L1634.32 192L1622.6 182.63C1608.94 199.708 1600.14 219.838 1594.74 241.946L1609.32 245.5ZM1634.32 192L1646.07 201.321C1655.85 188.993 1669.29 178.868 1686.44 171.192L1680.32 157.5L1674.19 143.808C1653.35 153.132 1635.79 166.007 1622.56 182.679L1634.32 192ZM1680.32 157.5L1686.14 171.325C1702.92 164.26 1724.36 160 1751.32 160V145V130C1721.27 130 1695.72 134.74 1674.5 143.675L1680.32 157.5ZM1751.32 406V421C1764.94 421 1777.06 418.734 1787.33 414.242L1781.32 400.5L1775.31 386.758C1769.57 389.266 1761.7 391 1751.32 391V406ZM1781.32 400.5L1788.03 413.916C1798.97 408.443 1806.89 400.291 1813.04 390.45L1800.32 382.5L1787.6 374.55C1783.75 380.709 1779.66 384.557 1774.61 387.084L1781.32 400.5ZM1800.32 382.5L1813.18 390.217C1818.78 380.884 1822.83 369.578 1825.1 356.57L1810.32 354L1795.54 351.43C1793.8 361.422 1790.85 369.116 1787.46 374.783L1800.32 382.5ZM1810.32 354L1825.18 356.027C1826.78 344.319 1827.82 330.141 1827.82 314.5H1812.82H1797.82C1797.82 328.859 1796.86 341.681 1795.45 351.973L1810.32 354ZM1812.82 314.5H1827.82C1827.82 298.817 1826.77 285.169 1825.19 273.06L1810.32 275L1795.44 276.94C1796.86 287.831 1797.82 300.183 1797.82 314.5H1812.82ZM1810.32 275L1825.08 272.317C1822.79 259.774 1818.75 248.682 1813.39 239.146L1800.32 246.5L1787.24 253.854C1790.88 260.318 1793.84 268.226 1795.56 277.683L1810.32 275ZM1800.32 246.5L1812.8 238.179C1806.73 229.077 1798.9 221.023 1788.03 215.584L1781.32 229L1774.61 242.416C1779.73 244.977 1783.9 248.923 1787.84 254.821L1800.32 246.5ZM1781.32 229L1787.33 215.258C1777.06 210.766 1764.94 208.5 1751.32 208.5V223.5V238.5C1761.7 238.5 1769.57 240.234 1775.31 242.742L1781.32 229ZM1751.32 223.5V208.5C1724.18 208.5 1701.15 217.749 1689.58 239.441L1702.82 246.5L1716.05 253.559C1720.48 245.251 1730.46 238.5 1751.32 238.5V223.5ZM1702.82 246.5L1689.67 239.287C1679.35 258.097 1675.32 283.632 1675.32 314.5H1690.32H1705.32C1705.32 285.368 1709.28 265.903 1715.97 253.712L1702.82 246.5ZM1690.32 314.5H1675.32C1675.32 345.231 1679.31 371.44 1689.77 389.895L1702.82 382.5L1715.87 375.105C1709.33 363.56 1705.32 343.769 1705.32 314.5H1690.32ZM1702.82 382.5L1689.49 389.38C1701.01 411.703 1724.12 421 1751.32 421V406V391C1730.51 391 1720.63 384.297 1716.15 375.62L1702.82 382.5Z" fill="#A2A2A2" fill-opacity="0.73" mask="url(#path-1-outside-1_6_509)"/>
</svg>
